<svg width="222" height="223" viewBox="0 0 222 223" fill="none" xmlns="http://www.w3.org/2000/svg">
<path d="M150.567 72.9141C153.239 71.6238 158.939 69.0428 160.364 69.0411C161.057 68.7432 162.621 68.4443 163.335 69.6315C166.309 72.7962 172.377 80.3134 172.858 85.0651C173.157 85.9558 173.397 88.0347 171.972 89.2245C170.39 90.6124 166.453 93.7458 163.366 95.1752L162.772 95.4729C163.766 98.6399 165.636 106.162 165.167 110.915C167.823 112.005 157.064 123.824 160.989 125.311C162.576 124.865 164.806 124.387 167.85 123.874C164.148 125.365 162.041 125.709 160.989 125.311C151.368 128.014 165.393 129.55 165.191 130.774C164.503 135.527 174.343 134.309 171.732 136.451C171.04 137.046 168.883 138.118 165.793 137.646C163.714 137.352 159.436 136.703 158.96 136.466L158.366 136.17C156.687 139.538 152.379 146.87 148.58 149.25C149.87 151.625 136.101 149.608 136.103 151.746C136.005 152.637 123.304 149.935 139.649 157.282C135.593 160.158 137.676 171.302 134.35 171.544C133.756 171.743 132.33 171.725 131.378 170.062C130.327 168.884 124.928 160.884 121.261 155.132L121.271 163.209C121.353 163.608 121.362 163.837 121.272 163.837L121.271 163.209C120.706 160.462 116.688 149.634 117.811 149.287C117.972 149.849 119.391 152.198 121.261 155.132L121.221 121.958L55.5802 122.036C54.9826 119.067 53.9845 112.105 54.4548 108.065C51.8796 107.177 46.4116 105.058 45.4594 103.633C45.063 103.337 44.3292 102.387 44.5651 100.961C44.7577 96.4067 46.2109 86.3459 50.4834 82.5389C51.7698 81.9433 55.8282 81.285 61.7712 83.4164C63.8461 79.9487 68.946 72.5369 72.7455 70.6314C71.5545 68.1577 69.1719 62.7944 69.1699 61.1311C68.7729 60.3395 68.4539 58.5182 70.3537 57.5654C74.2114 54.5906 82.6396 48.6995 85.4913 48.9337C86.2829 48.5367 88.2825 48.2769 89.9484 50.4134C91.4354 51.9954 94.6477 55.7532 95.601 58.1287L111.636 54.5452C113.019 52.0683 115.963 46.9957 116.675 46.5196C117.17 45.925 118.396 44.7354 119.346 44.7343C124.496 45.4211 135.448 47.5069 138.065 50.3552C139.056 50.849 140.268 54.095 137.19 63.128C140.757 65.4009 148.248 70.5996 149.677 73.2117L150.567 72.9141Z" fill="#62C1C5"/>
<path d="M168.467 142.691C167.073 142.99 160.957 141.672 158.073 140.975L157.14 140.872C156.295 143.727 150.071 150.392 147.065 153.367C151.982 161.546 151.484 164.974 150.62 165.666C148.664 169.003 138.399 173.356 133.511 175.115C132.582 175.315 131.132 174.411 130.523 173.935C129.726 173.62 125.777 169.284 123.902 167.155L107.472 167.041C107.042 169.564 104.696 173.915 103.577 175.776C102.4 178.216 100.391 178.385 99.533 178.164C96.7952 178.995 87.3124 175.018 82.9133 172.926C80.8551 172.396 80.7821 170.548 81.0028 169.691C80.6534 168.064 81.849 162.319 82.4904 159.649C78.3741 158.59 71.8233 152.423 69.0625 149.472C63.7041 152.811 59.5981 153.025 58.215 152.714C53.2346 149.896 49.6884 140.369 48.5379 135.958C48.006 134.614 48.5226 133.531 48.8474 133.158C49.4771 131.564 54.2935 128.342 56.623 126.93C55.3096 123.08 54.4682 111.001 54.4249 107.972L119.027 99.2394C136 102.958 162.559 97.1374 164.082 100.514C165.605 103.891 165.538 113.041 165.236 116.347L165.879 116.512C169.199 117.257 173.709 119.488 175.549 120.51C177.192 121.372 177.397 123.455 177.293 124.389C177.827 129.135 173.484 137.764 171.246 141.486C170.799 142.797 169.207 142.835 168.467 142.691Z" fill="#62C1C5"/>
<path d="M77.0535 77.6807C81.5055 73.2331 93.7189 64.35 106.957 64.3988" stroke="white" stroke-width="0.626894"/>
<circle cx="111.017" cy="114.336" r="25.2466" transform="rotate(-20.8266 111.017 114.336)" fill="white"/>
<circle cx="111.018" cy="114.337" r="35.6259" transform="rotate(-20.8266 111.018 114.337)" stroke="white" stroke-width="0.626894"/>
<path d="M159.717 98.6712C162.247 106.713 164.459 126.675 153.074 142.192C150.438 145.843 144.02 153.644 139.441 155.641C134.862 157.637 136.978 156.684 138.608 155.957" stroke="white" stroke-width="0.626894"/>
</svg>
