<svg width="291" height="291" viewBox="0 0 291 291" fill="none" xmlns="http://www.w3.org/2000/svg">
<path d="M230.914 108.274C235.909 107.841 246.463 107.189 248.716 108.043C249.989 107.988 252.639 108.456 253.054 110.76C255.85 117.546 260.918 133.066 258.823 140.861C258.759 142.447 257.889 145.875 254.924 146.899C251.59 148.14 243.489 150.724 237.754 151.127L236.637 151.241C236.304 156.84 234.739 169.846 231.141 177.071C234.682 180.389 210.586 192.594 215.892 197.3C218.667 197.549 222.477 198.135 227.592 199.153C220.849 199.284 217.315 198.561 215.892 197.3C199.07 195.789 220.302 206.643 219.246 208.455C215.305 215.55 231.579 219.538 226.168 221.352C224.717 221.875 220.666 222.272 216.069 219.671C212.961 217.956 206.593 214.362 205.985 213.702L205.224 212.877C200.548 217.188 189.338 226.181 181.907 227.658C182.517 232.184 161.98 220.724 160.699 224.104C160.009 225.453 141.57 213.552 162.974 234.978C154.839 237.084 151.433 255.939 146.034 254.322C144.976 254.279 142.735 253.394 142.229 250.196C141.279 247.703 137.556 231.822 135.221 220.533L130.383 233.297C130.273 233.978 130.15 234.345 130.007 234.291L130.383 233.297C131.141 228.619 131.3 209.102 133.283 209.229C133.2 210.213 134.03 214.776 135.221 220.533L155.091 168.109L51.3587 128.792C52.199 123.742 54.8052 112.146 57.9757 106.047C54.4414 103.097 47.0778 96.4639 46.4298 93.6416C45.9818 92.935 45.3933 90.9942 46.6228 88.8835C49.6636 81.805 58.0042 66.7864 67.0404 63.3402C69.4301 63.1723 76.2364 64.5711 84.343 71.5087C89.7042 67.2779 102.213 58.6347 109.36 57.9079C108.965 53.2848 108.424 43.3815 109.42 40.753C109.269 39.2641 109.859 36.1955 113.433 35.832C121.314 33.451 138.166 29.2098 142.53 31.2932C144.019 31.1418 147.334 31.9328 148.681 36.3086C150.079 39.7009 152.896 47.5669 152.974 51.8918L180.455 55.8661C184.128 52.7849 191.827 46.5413 193.238 46.2173C194.376 45.575 197.028 44.4329 198.53 45.0022C206.251 49.181 222.298 59.0567 224.721 65.1283C225.989 66.5036 225.952 72.3589 215.663 84.7778C219.931 90.5112 228.64 103.224 229.328 108.209L230.914 108.274Z" fill="#62C1C5"/>
<path d="M217.262 229.246C214.88 228.882 206.011 223.124 201.874 220.291L200.461 219.568C197.411 223.57 183.577 230.357 177.04 233.25C179.893 249.124 177.046 254.24 175.265 254.814C170.17 258.91 151.341 259.618 142.563 259.46C140.975 259.217 139.228 256.918 138.553 255.799C137.483 254.823 133.85 245.601 132.167 241.112L106.284 231.059C104.088 234.786 97.7683 240.25 94.8826 242.517C91.5575 245.664 88.2823 244.723 87.0603 243.859C82.2362 243.527 69.6473 231.547 63.9559 225.598C61.0232 223.525 62.018 220.562 62.882 219.34C63.3071 216.562 68.648 208.205 71.2652 204.373C65.3998 200.226 58.7579 186.549 56.1702 180.229C45.6999 182.283 39.0856 180.154 37.0873 178.833C30.9138 171.389 31.0365 154.21 31.8696 146.551C31.837 144.109 33.3038 142.708 34.0413 142.313C35.9935 140.174 45.5376 137.978 50.0657 137.147C50.3041 130.278 56.233 110.692 57.9845 105.882L165.276 130.905C189.851 146.977 235.3 153.741 235.677 159.991C236.053 166.24 230.45 180.653 227.987 185.693L228.903 186.341C233.699 189.512 239.482 195.745 241.774 198.466C243.853 200.815 242.924 204.227 242.2 205.64C240.192 213.458 228.147 224.479 222.375 229.013C220.881 230.816 218.343 229.92 217.262 229.246Z" fill="#62C1C5"/>
<path d="M111.929 71.6315C121.634 67.2812 146.263 60.5884 167.145 68.6197" stroke="white" stroke-width="0.626894"/>
<circle cx="143.553" cy="149.938" r="42.6667" fill="white"/>
<circle cx="143.553" cy="149.938" r="60.4238" stroke="white" stroke-width="0.626894"/>
<path d="M229.89 154.455C229.054 168.677 220.554 201.539 193.247 219.208C186.889 223.391 172.064 231.857 163.632 232.259C155.199 232.661 159.114 232.426 162.126 232.259" stroke="white" stroke-width="0.626894"/>
</svg>
